<?xml version="1.0" encoding="UTF-8"?>
<!DOCTYPE svg PUBLIC "-//W3C//DTD SVG 1.1//EN" "http://www.w3.org/Graphics/SVG/1.1/DTD/svg11.dtd">
<!-- Creator: CorelDRAW -->
<svg xmlns="http://www.w3.org/2000/svg" xml:space="preserve" width="100px" height="100px" version="1.1" style="shape-rendering:geometricPrecision; text-rendering:geometricPrecision; image-rendering:optimizeQuality; fill-rule:evenodd; clip-rule:evenodd"
viewBox="0 0 6173.62 4304.96"
 xmlns:xlink="http://www.w3.org/1999/xlink"
 xmlns:xodm="http://www.corel.com/coreldraw/odm/2003">
 <defs>
  <style type="text/css">
   <![CDATA[
    .fil1 {fill:#FFB901}
    .fil0 {fill:white;fill-rule:nonzero}
   ]]>
  </style>
 </defs>
 <g id="Camada_x0020_1">
  <metadata id="CorelCorpID_0Corel-Layer"/>
  <g style="clip-path:url(#id0)">
   <image width="50" height="50" xlink:href="ZOÉ EXPRESS_Images\ZOÉ EXPRESS_ImgID1.png"/>
  </g>
  <g id="_2940551488496">
   <path class="fil1" d="M3206.06 1921.24c618.86,15.45 1020.32,-343.35 978.37,-973.24 -273.57,-36.98 -565.59,65.35 -728.62,235.76 -178.61,186.69 -265.94,411.38 -249.75,737.48z"/>
   <path class="fil1" d="M3057.19 1372.02c169.65,-60.19 525.75,-619.77 247.52,-1087.29 -54.42,-91.43 -146.13,-247.98 -247.52,-278.21 -407.71,306.59 -470.78,969.06 0,1365.5z"/>
   <path class="fil1" d="M2949.18 1927.03c50.22,-270.02 -92.14,-577.61 -232.02,-723.41 -161.07,-167.85 -407.18,-273.42 -736.83,-259.7 -60.28,589.72 381.7,1039.05 968.85,983.11z"/>
  </g>
 </g>
</svg>
