<!DOCTYPE svg PUBLIC "-//W3C//DTD SVG 1.1//EN" "http://www.w3.org/Graphics/SVG/1.1/DTD/svg11.dtd">
<!-- Uploaded to: SVG Repo, www.svgrepo.com, Transformed by: SVG Repo Mixer Tools -->
<svg width="  20px" height=" 20px" viewBox="0 0 24 24" xmlns="http://www.w3.org/2000/svg" fill="#000000" stroke="#000000">

<g id="SVGRepo_bgCarrier" stroke-width="0"/>

<g id="SVGRepo_tracerCarrier" stroke-linecap="round" stroke-linejoin="round"/>

<g id="SVGRepo_iconCarrier"> <defs> <style>.cls-1{fill:none;stroke:#FFBB00;stroke-linecap:square;stroke-miterlimit:10;stroke-width:1.91px;}</style> </defs> <g id="dolar_coin" data-name="dolar coin"> <path class="cls-1" d="M22.5,12A10.5,10.5,0,1,1,12,1.5,10.5,10.5,0,0,1,22.5,12"/> <path class="cls-1" d="M9.14,15.82H13a1.91,1.91,0,0,0,1.91-1.91h0A1.9,1.9,0,0,0,13,12h-1.9a1.9,1.9,0,0,1-1.91-1.91h0a1.91,1.91,0,0,1,1.91-1.91h3.81"/> <line class="cls-1" x1="12" y1="6.27" x2="12" y2="8.18"/> <line class="cls-1" x1="12" y1="15.82" x2="12" y2="17.73"/> </g> </g>

</svg>