<!DOCTYPE svg PUBLIC "-//W3C//DTD SVG 1.1//EN" "http://www.w3.org/Graphics/SVG/1.1/DTD/svg11.dtd">
<!-- Uploaded to: SVG Repo, www.svgrepo.com, Transformed by: SVG Repo Mixer Tools -->
<svg width="20px" height="20px" viewBox="0 0 48 48" xmlns="http://www.w3.org/2000/svg" fill="#ffbb00">

<g id="SVGRepo_bgCarrier" stroke-width="0"/>

<g id="SVGRepo_tracerCarrier" stroke-linecap="round" stroke-linejoin="round"/>

<g id="SVGRepo_iconCarrier"> <g id="Layer_2" data-name="Layer 2"> <g id="invisible_box" data-name="invisible box"> <rect width="48" height="48" fill="none"/> </g> <g id="Layer_7" data-name="Layer 7"> <path d="M35.8,11a3.2,3.2,0,0,0-2.2-1H32V8a2.9,2.9,0,0,0-3-3H5A2.9,2.9,0,0,0,2,8V35a2.9,2.9,0,0,0,3,3H7.3a7,7,0,0,0,13.4,0h6.6a7,7,0,0,0,13.4,0H43a2.9,2.9,0,0,0,3-3V22.2Zm-2.7,3,7.3,8H32V14ZM14,39a3,3,0,1,1,3-3A2.9,2.9,0,0,1,14,39Zm20,0a3,3,0,1,1,3-3A2.9,2.9,0,0,1,34,39Z"/> </g> </g> </g>

</svg>