<?xml version="1.0" encoding="UTF-8"?>
<!DOCTYPE svg PUBLIC "-//W3C//DTD SVG 1.1//EN" "http://www.w3.org/Graphics/SVG/1.1/DTD/svg11.dtd">
<!-- Creator: CorelDRAW -->
<svg xmlns="http://www.w3.org/2000/svg" xml:space="preserve" width="100px" height="50px" version="1.1" style="shape-rendering:geometricPrecision; text-rendering:geometricPrecision; image-rendering:optimizeQuality; fill-rule:evenodd; clip-rule:evenodd"
viewBox="0 0 6173.62 4304.96"
 xmlns:xlink="http://www.w3.org/1999/xlink"
 xmlns:xodm="http://www.corel.com/coreldraw/odm/2003">
 <defs>
  <style type="text/css">
   <![CDATA[
    .fil1 {fill:#FFB901}
    .fil0 {fill:white;fill-rule:nonzero}
   ]]>
  </style>
   <clipPath id="id0">
    <rect x="2024.55" y="955.1" width="136.09" height="136.1"/>
   </clipPath>
 </defs>
 <g id="Camada_x0020_1">
  <metadata id="CorelCorpID_0Corel-Layer"/>
  <g style="clip-path:url(#id0)">
   <image x="2024.55" y="955.1" width="136.1" height="136.1" xlink:href="ZOÉ EXPRESS_Images\ZOÉ EXPRESS_ImgID1.png"/>
  </g>
  <polygon class="fil0" points="84.12,2390.48 1488.59,2390.48 1488.59,2768.26 586.73,3873.45 1522.3,3873.45 1522.3,4279.81 -3.52,4279.81 -3.52,3887.52 888.97,2794.2 84.12,2794.2 "/>
  <path class="fil0" d="M2173.5 3336.46c0,-308.29 84.48,-548.41 253.89,-719.93 169.41,-171.96 405.1,-257.72 707.52,-257.72 309.78,0 548.52,84.44 716.19,252.88 167.67,168.88 251.29,405.49 251.29,709.38 0,220.78 -36.39,401.53 -109.62,542.7 -73.22,141.17 -179.37,251.12 -317.58,329.84 -138.64,78.72 -311.08,117.86 -517.75,117.86 -209.7,0 -383.44,-33.86 -521.21,-101.59 -137.35,-68.16 -249.13,-175.47 -334.49,-322.36 -85.35,-146.45 -128.24,-330.28 -128.24,-551.06zm574.51 1.32c0,190.43 35.1,327.65 104.85,410.77 70.19,83.12 165.5,124.9 285.95,124.9 123.48,0 219.66,-40.9 287.26,-122.27 68.02,-81.8 101.81,-227.81 101.81,-439.34 0,-177.68 -35.52,-307.42 -106.15,-389.22 -71.05,-82.24 -166.81,-123.14 -288.12,-123.14 -116.11,0 -209.69,41.78 -279.89,124.9 -70.61,83.12 -105.71,221.22 -105.71,413.4z"/>
  <polygon class="fil0" points="4995,2390.48 6148.67,2390.48 6148.67,2794.2 5427.63,2794.2 5427.63,3095.02 6096.05,3095.02 6096.05,3480.27 5427.63,3480.27 5427.63,3852.34 6170.11,3852.34 6170.11,4279.81 4995,4279.81 "/>
  <polygon class="fil0" points="5538.2,1825.16 6130.63,1825.16 5583.24,2210.42 5254.11,2210.42 "/>
  <g id="_2940551488496">
   <path class="fil1" d="M3206.06 1921.24c618.86,15.45 1020.32,-343.35 978.37,-973.24 -273.57,-36.98 -565.59,65.35 -728.62,235.76 -178.61,186.69 -265.94,411.38 -249.75,737.48z"/>
   <path class="fil1" d="M3057.19 1372.02c169.65,-60.19 525.75,-619.77 247.52,-1087.29 -54.42,-91.43 -146.13,-247.98 -247.52,-278.21 -407.71,306.59 -470.78,969.06 0,1365.5z"/>
   <path class="fil1" d="M2949.18 1927.03c50.22,-270.02 -92.14,-577.61 -232.02,-723.41 -161.07,-167.85 -407.18,-273.42 -736.83,-259.7 -60.28,589.72 381.7,1039.05 968.85,983.11z"/>
  </g>
 </g>
</svg>
